<?xml version="1.0" encoding="utf-8"?>
<!-- Generator: Adobe Illustrator 24.2.1, SVG Export Plug-In . SVG Version: 6.00 Build 0)  -->
<svg version="1.1" id="Layer_1" xmlns="http://www.w3.org/2000/svg" xmlns:xlink="http://www.w3.org/1999/xlink" x="0px" y="0px"
	 viewBox="0 0 310 319.9" style="enable-background:new 0 0 310 319.9;" xml:space="preserve">
<style type="text/css">
	.st0{fill:#29485B;stroke:#29485B;stroke-width:3;stroke-miterlimit:10;}
	.st1{fill:#0483DD;}
</style>
<g transform="translate(-2185.749 -130.22)">
	<path class="st0" d="M2463.1,253.8c7.8-30.9-11-62.4-41.9-70.1c-4.6-1.2-9.3-1.7-14.1-1.7c-1.8,0-3.5,0.1-5.3,0.2
		c-14.5-33.7-53.6-49.3-87.3-34.8c-15.6,6.7-28.1,19.2-34.8,34.8c-1.7-0.2-3.5-0.2-5.3-0.2c-31.9,0-57.8,25.9-57.7,57.8
		c0,4.7,0.6,9.5,1.7,14.1c-22.1,14.8-28,44.8-13.1,66.9c8.9,13.3,23.9,21.3,40,21.3h6.7v16.6c0,7.8,6.3,14.1,14.1,14.1h0.8
		c1.4,4.5,3.2,8.8,5.3,12.9l-0.5,0.5c-5.5,5.5-5.5,14.4,0,19.9c0,0,0,0,0,0l12.7,12.7c5.5,5.5,14.4,5.5,19.9,0l0.6-0.6
		c4.1,2.2,8.4,4,12.9,5.3v0.8c0,7.8,6.3,14.1,14.1,14.1h17.9c7.8,0,14.1-6.3,14.1-14.1v-0.8c4.4-1.4,8.7-3.2,12.9-5.3l0.6,0.5
		c5.5,5.5,14.4,5.5,19.9,0l12.7-12.7c5.5-5.5,5.5-14.4,0-19.9l-0.6-0.6c2.2-4.1,4-8.4,5.3-12.9h0.8c7.8,0,14.1-6.3,14.1-14.1V342
		h6.7c26.6,0,48.2-21.6,48.2-48.2C2484.4,277.7,2476.4,262.7,2463.1,253.8L2463.1,253.8z M2414,357.2h-5.4c-3.6,0-6.7,2.5-7.5,6
		c-1.6,6.9-4.3,13.5-8.1,19.5c-1.9,3-1.5,7,1.1,9.6l3.8,3.8l-10.8,10.8l-3.8-3.8c-2.5-2.6-6.5-3-9.6-1.1c-6,3.8-12.5,6.5-19.4,8
		c-3.5,0.8-6,3.9-6,7.5v5.4h-15.3v-5.4c0-3.6-2.5-6.8-6-7.5c-6.9-1.5-13.5-4.3-19.4-8c-3-1.9-7-1.5-9.6,1.1l-3.8,3.8l-10.8-10.8
		l3.8-3.8c2.6-2.5,3-6.5,1.1-9.6c-3.8-6-6.5-12.5-8.1-19.4c-0.8-3.5-3.9-6-7.5-6h-5.4V342h22.2c-4.2,28.2,15.2,54.5,43.4,58.7
		s54.5-15.2,58.7-43.4c0.8-5.1,0.8-10.3,0-15.4h22.2L2414,357.2z M2436.2,326.6h-69.8c-4.3,0-7.7,3.4-7.8,7.6s3.4,7.7,7.6,7.8
		c0.1,0,0.1,0,0.2,0h9.8c4.2,19.5-8.3,38.8-27.8,43c-19.5,4.2-38.8-8.3-43-27.8c-1.1-5-1.1-10.2,0-15.2h9.8c4.3,0,7.7-3.5,7.6-7.8
		c0-4.2-3.4-7.6-7.6-7.6h-69.8c-18.1,0-32.8-14.7-32.8-32.8c0-12.5,7.2-24,18.5-29.5c3.6-1.7,5.3-5.9,3.8-9.7
		c-8.3-21.9,2.8-46.3,24.6-54.6c4.8-1.8,9.8-2.7,14.9-2.7c2.9,0,5.8,0.3,8.7,0.9c3.9,0.8,7.8-1.4,9-5.2c8.5-26.9,37.1-41.8,64-33.3
		c15.8,5,28.3,17.4,33.3,33.3c1.2,3.8,5.1,6.1,9,5.2c2.9-0.6,5.8-0.9,8.7-0.9c23.4,0,42.3,19,42.3,42.4c0,5.1-0.9,10.2-2.7,15
		c-1.4,3.7,0.2,7.9,3.8,9.7c16.3,7.9,23.1,27.5,15.2,43.8C2460.2,319.4,2448.8,326.6,2436.2,326.6L2436.2,326.6z"/>
	<path class="st1" d="M2401.1,223c-4.3,0-7.7,3.5-7.7,7.7V287c0,4.3,3.4,7.7,7.6,7.8s7.7-3.4,7.8-7.6c0-0.1,0-0.1,0-0.2v-56.3
		C2408.8,226.4,2405.3,223,2401.1,223z"/>
	<path class="st1" d="M2355.6,223h-16c-4.2,0.1-7.7,3.5-7.7,7.7v57.4c0,4.3,3.4,7.7,7.6,7.8s7.7-3.4,7.8-7.6c0-0.1,0-0.1,0-0.2
		v-17.3c3.1,0,6.3,0,8.3,0c13.2,0,23.9-10.7,23.9-23.9C2379.5,233.7,2368.8,223,2355.6,223C2355.6,223,2355.6,223,2355.6,223
		L2355.6,223z M2355.6,255.4c-1.9,0-5.1,0-8.2,0c0-3.2,0-6.5,0-8.5c0-1.7,0-5.2,0-8.5h8.2c4.7-0.2,8.6,3.5,8.8,8.2s-3.5,8.6-8.2,8.8
		C2356,255.4,2355.8,255.4,2355.6,255.4L2355.6,255.4z"/>
	<path class="st1" d="M2296.5,228.8l-0.1-0.2c-1.9-4.6-7.1-6.8-11.7-5c-2.3,0.9-4.1,2.7-5,5l-21.6,56.7c-1.5,4,0.5,8.4,4.5,9.9
		s8.4-0.5,9.9-4.5l0,0l3.5-9.1h24l3.4,9.1c1.5,4,5.9,6,9.9,4.5c0,0,0,0,0,0c4-1.5,6-6,4.5-9.9c0,0,0,0,0,0L2296.5,228.8z
		 M2281.9,266.3l6.2-16.2l6.1,16.2H2281.9z"/>
	<path class="st1" d="M2340.7,326.6c-4.3,0-7.7,3.5-7.7,7.7c0,4.3,3.5,7.7,7.7,7.7c4.3,0,7.7-3.5,7.7-7.7
		C2348.5,330,2345,326.6,2340.7,326.6C2340.7,326.6,2340.7,326.6,2340.7,326.6z"/>
</g>
</svg>
